HIERARCHY
ROOT hip
{
	OFFSET 0.000000 0.000000 0.000000 
	CHANNELS 6 Xposition Yposition Zposition Xrotation Zrotation Yrotation
	JOINT abdomen
	{
		OFFSET 0.000000 3.402643 0.000000 
		CHANNELS 3 Xrotation Zrotation Yrotation
		JOINT chest
		{
			OFFSET 0.000000 8.438565 -0.680529 
			CHANNELS 3 Xrotation Zrotation Yrotation
			JOINT neck
			{
				OFFSET 0.000000 10.207942 -0.272212 
				CHANNELS 3 Xrotation Zrotation Yrotation
				JOINT head
				{
					OFFSET 0.000000 3.130431 0.000000 
					CHANNELS 3 Xrotation Zrotation Yrotation
					End Site
					{
						OFFSET 0.000000 3.130435 0.000000 
					}
				}
			}
			JOINT lCollar
			{
				OFFSET 3.470700 6.669187 -0.816635 
				CHANNELS 3 Yrotation Zrotation Xrotation
				JOINT lShldr
				{
					OFFSET 3.198488 0.000000 0.000000 
					CHANNELS 3 Zrotation Yrotation Xrotation
					JOINT lForeArm
					{
						OFFSET 10.139888 0.000000 0.000000 
						CHANNELS 3 Yrotation Zrotation Xrotation
						JOINT lHand
						{
							OFFSET 8.370511 0.000000 0.000000 
							CHANNELS 3 Zrotation Yrotation Xrotation
							End Site
							{
								OFFSET 4.083176 0.000000 0.000000 
							}
						}
					}
				}
			}
			JOINT rCollar
			{
				OFFSET -3.470700 6.669187 -0.816635 
				CHANNELS 3 Yrotation Zrotation Xrotation
				JOINT rShldr
				{
					OFFSET -3.198488 0.000000 0.000000 
					CHANNELS 3 Zrotation Yrotation Xrotation
					JOINT rForeArm
					{
						OFFSET -10.139888 0.000000 0.000000 
						CHANNELS 3 Yrotation Zrotation Xrotation
						JOINT rHand
						{
							OFFSET -8.370511 0.000000 0.000000 
							CHANNELS 3 Zrotation Yrotation Xrotation
							End Site
							{
								OFFSET -4.083176 0.000000 0.000000 
							}
						}
					}
				}
			}
		}
	}
	JOINT lThigh
	{
		OFFSET 5.308129 -1.633274 1.361059 
		CHANNELS 3 Xrotation Zrotation Yrotation
		JOINT lShin
		{
			OFFSET -2.041588 -20.007561 0.000000 
			CHANNELS 3 Xrotation Zrotation Yrotation
			JOINT lFoot
			{
				OFFSET 0.000000 -19.190928 -1.224953 
				CHANNELS 3 Xrotation Yrotation Zrotation
				End Site
				{
					OFFSET 0.000000 -2.449906 4.627600 
				}
			}
		}
	}
	JOINT rThigh
	{
		OFFSET -5.308129 -1.633274 1.361059 
		CHANNELS 3 Xrotation Zrotation Yrotation
		JOINT rShin
		{
			OFFSET 2.041588 -20.007561 0.000000 
			CHANNELS 3 Xrotation Zrotation Yrotation
			JOINT rFoot
			{
				OFFSET 0.000000 -19.190928 -1.224953 
				CHANNELS 3 Xrotation Yrotation Zrotation
				End Site
				{
					OFFSET 0.000000 -2.449906 4.627600 
				}
			}
		}
	}
}
MOTION
Frames: 14
Frame Time: 0.033333
-13.006065 50.489655 15.110154 9.101563 10.234375 -49.168186 56.122913 -11.607757 -19.315706 -16.181641 5.703125 3.907221 51.063168 8.107644 2.471410 -64.785156 -19.921873 35.791019 2.000000 -2.000000 0.000000 -84.960938 -30.878910 -32.251110 -44.944363 -1.789630 -1.720679 -24.909084 40.852215 -60.786942 -2.000000 2.000000 0.000000 55.830074 -0.292969 19.687485 105.868263 -0.927458 -2.769056 -24.191021 -70.961800 9.651945 -34.643539 23.390646 23.395847 55.174911 -3.129628 -4.339739 0.057390 17.057158 -2.918508 -29.263651 4.383783 -6.550604 15.256853 5.272802 1.317832 -0.664855 -6.920157 0.320243 
-13.315377 50.765373 15.885346 8.945313 10.761720 -50.525520 56.039238 -12.287060 -19.139149 -16.347656 6.210938 4.189454 51.063168 8.107644 2.471410 -65.361328 -21.054686 36.054688 2.000000 -2.000000 0.000000 -84.726563 -30.849607 -31.347654 -45.828831 -1.772345 -1.927044 -24.567781 40.784393 -61.692787 -2.000000 2.000000 0.000000 56.757813 0.898438 17.617342 106.044037 -0.937208 -2.769621 -22.108812 -71.307983 8.561896 -34.888931 24.242388 22.616085 51.161976 -3.439196 -4.130169 -2.351012 16.282864 -1.988164 -28.264898 4.158752 -5.571229 14.193869 5.253727 1.244821 -0.511465 -6.298351 -0.519001 
-13.522628 51.072628 16.788176 8.759767 11.103515 -51.228592 55.841709 -12.216718 -18.960735 -16.513672 6.396485 4.210072 51.063168 8.107644 2.471410 -65.703125 -21.865234 36.337894 2.000000 -2.000000 0.000000 -84.902344 -30.371096 -29.414063 -48.123005 -1.888194 -1.900710 -24.537674 40.226604 -64.370430 -2.000000 2.000000 0.000000 57.382809 0.126953 14.550786 107.801231 -1.016332 -2.754655 -21.084723 -71.674156 8.584313 -34.536743 25.139675 21.935371 46.042030 -3.762873 -3.868024 -4.020083 15.354099 -1.166052 -27.198881 3.397044 -5.024120 13.691072 5.421580 1.228537 -0.488863 -5.925199 -0.123136 
-13.658017 51.371986 17.829403 8.759767 11.103515 -51.228592 55.412251 -11.998844 -18.786343 -16.699219 6.230469 4.336997 51.063168 8.107644 2.471410 -65.214844 -22.304688 36.044922 2.000000 -2.000000 0.000000 -85.781250 -29.306641 -26.235249 -50.927235 -1.646745 -1.953949 -25.466482 39.499378 -68.018417 -2.000000 2.000000 0.000000 57.744141 -2.470703 12.675692 109.910576 -1.083756 -3.110396 -23.021315 -71.400391 11.620827 -34.178787 25.906780 21.285097 40.397617 -4.119898 -3.507177 -4.622748 13.851320 -0.480554 -26.228392 2.450556 -4.093188 13.313373 5.494657 0.882547 -0.486433 -6.214416 0.362892 
-13.736242 51.671364 19.133303 8.759767 11.103515 -50.877026 55.144566 -11.633106 -18.473425 -16.884766 6.064454 4.268610 51.063168 8.107644 2.471410 -64.628906 -22.226561 35.634762 2.000000 -2.000000 0.000000 -86.845703 -28.164064 -23.095703 -54.096207 -1.725792 -2.135412 -25.443125 38.785397 -70.799377 -2.000000 2.000000 0.000000 56.582031 -7.236329 12.166739 112.021561 -0.837205 -3.144884 -22.737097 -69.854919 11.420474 -33.627987 26.583664 21.203613 34.783649 -4.259495 -3.052098 -4.501760 12.243281 -0.328064 -25.034475 1.366331 -3.639156 13.315457 5.517735 0.855588 -0.842325 -6.512228 0.520967 
-13.692734 51.954975 20.645384 8.945313 10.761720 -49.998173 54.676281 -11.098794 -18.138483 -17.050779 5.898438 4.395535 51.063168 8.107644 2.471410 -63.613281 -21.855467 34.820583 2.000000 -2.000000 0.000000 -88.222656 -26.875000 -20.341795 -56.722210 -1.303172 -2.101395 -25.762959 38.119987 -73.201668 -2.000000 2.000000 0.000000 54.589844 -13.769531 12.851562 114.301270 -1.091650 -2.973958 -23.701134 -68.313499 12.565448 -33.299782 27.195541 20.806282 29.505209 -4.537473 -2.666169 -4.612224 10.987041 -0.249873 -23.742319 -0.195301 -3.683228 13.314257 5.466357 0.879758 -1.378857 -6.755195 0.710287 
-13.533737 52.222824 22.135824 8.935547 10.585938 -49.138832 54.254292 -10.659366 -17.972677 -17.080078 5.556641 4.306570 51.063168 8.107644 2.471410 -62.792969 -21.630857 34.283512 2.000000 -2.000000 0.000000 -90.957031 -24.765625 -18.021669 -59.534462 -1.391847 -2.448485 -25.642090 38.312069 -73.444496 -2.000000 2.000000 0.000000 53.017578 -18.623049 14.355470 115.882217 -1.307827 -2.957126 -24.321800 -67.125961 12.974081 -32.780972 27.574066 21.428755 24.574280 -4.747169 -2.316573 -4.931979 10.306428 -0.183465 -22.875076 -1.757686 -3.933207 13.842297 5.586537 1.083771 -1.341326 -6.999660 1.193735 
-13.283670 52.427658 23.690838 9.101563 10.234375 -48.289280 53.995693 -10.185850 -17.815353 -17.265625 5.390625 4.248047 51.063168 8.107644 2.471410 -62.197266 -21.533199 33.837891 2.000000 -2.000000 0.000000 -94.677734 -22.080078 -16.126715 -62.171246 -1.128053 -2.454052 -24.992365 38.626522 -72.194427 -2.000000 2.000000 0.000000 52.187500 -21.337889 16.240234 117.112389 -1.327890 -2.948508 -24.810818 -66.874969 12.828991 -32.281036 27.550625 22.325350 19.985834 -4.913196 -2.103188 -4.803834 10.203485 -0.304823 -21.954372 -3.133356 -4.055069 14.374302 5.214810 0.924523 -1.379010 -6.746601 1.144189 
-13.023074 52.545830 25.284962 9.091797 10.068360 -47.791256 53.776386 -9.998051 -17.529800 -17.265625 5.224609 4.384766 51.063168 8.107644 2.471410 -62.041019 -21.738279 33.623051 2.000000 -2.000000 0.000000 -96.718750 -20.859375 -15.556641 -62.699150 -1.109688 -2.474677 -24.879320 38.857983 -70.835220 -2.000000 2.000000 0.000000 52.031250 -22.939453 18.306742 117.815460 -1.366887 -2.950763 -24.368683 -67.244698 11.783442 -31.864069 27.292500 23.753544 14.883019 -5.067608 -1.535869 -2.667850 10.718563 -0.219808 -20.923527 -4.823081 -4.859361 15.070073 4.977631 1.443732 -1.711952 -6.460955 1.260457 
-12.768497 52.514320 26.852011 8.916017 10.068360 -47.820557 53.765408 -9.911746 -17.680988 -17.265625 5.224609 4.384766 51.063168 8.107644 2.471410 -61.904293 -22.099607 33.609608 2.000000 -2.000000 0.000000 -96.660156 -20.449217 -15.921379 -60.238163 -1.363733 -2.469677 -25.231110 38.720959 -69.203201 -2.000000 2.000000 0.000000 51.933598 -23.789064 20.406218 118.169174 -1.187451 -3.008834 -24.642885 -67.330490 10.892899 -31.581131 26.755735 25.664034 10.090491 -5.167673 -1.126304 -0.860978 11.362595 0.440418 -20.180092 -6.394523 -4.974035 15.777923 4.979434 1.501910 -2.570877 -6.005352 1.358047 
-12.430022 52.427658 28.389778 8.740234 10.068359 -48.728764 53.825909 -10.315268 -17.659344 -17.265625 5.390625 4.423830 51.063168 8.107644 2.471410 -62.285156 -22.050781 33.808594 2.000000 -2.000000 0.000000 -95.380859 -21.367186 -17.148436 -56.195961 -1.471748 -2.140454 -25.961456 38.487080 -67.373657 -2.000000 2.000000 0.000000 51.943359 -22.529299 21.422039 117.461235 -1.167556 -3.183490 -25.059956 -68.164536 10.800879 -31.511921 26.646036 27.097919 6.592670 -5.233886 -0.789144 0.060993 12.013329 -0.199428 -19.540009 -8.007355 -4.609274 16.669432 4.970335 1.583887 -2.935997 -5.484777 1.226895 
-11.981040 52.356758 29.804886 8.212891 10.263673 -50.554901 54.283863 -10.856143 -17.975773 -16.884766 5.722657 4.727537 51.063168 8.107644 2.471410 -63.193359 -21.748047 34.287109 2.000000 -2.000000 0.000000 -92.958984 -22.773438 -18.880732 -51.621151 -1.628385 -1.974858 -27.560175 37.917362 -66.668533 -2.000000 2.000000 0.000000 51.923824 -17.929688 22.812498 114.827873 -1.258517 -2.964052 -26.410875 -69.183113 11.444963 -31.646893 26.924261 28.414886 4.623716 -5.244775 -0.653578 -1.076792 12.663539 -0.410410 -19.387280 -9.654393 -3.176097 17.545008 4.969621 1.024005 -2.895298 -4.488789 0.813094 
-11.530899 52.230709 31.160515 7.832031 10.253906 -52.558594 54.792004 -11.680077 -18.430548 -16.533205 6.054688 4.833985 51.063168 8.107644 2.471410 -64.697266 -21.503904 35.527344 2.000000 -2.000000 0.000000 -90.625000 -24.628908 -21.420082 -47.930901 -1.728720 -2.017899 -27.974525 38.066463 -64.943542 -2.000000 2.000000 0.000000 51.904297 -10.927735 23.103619 110.800774 -0.934699 -3.150665 -28.515928 -70.375748 12.417545 -34.265877 28.716051 28.768351 12.944946 -5.186062 -1.376036 1.438073 10.946717 -3.069385 -19.498905 -11.121227 -2.450666 18.074734 4.921350 1.693388 -2.447213 -3.809739 -0.033256 
-11.241755 52.065262 32.295704 7.500000 10.449220 -54.189453 55.512371 -12.469326 -18.924845 -16.337891 6.386719 4.931641 51.063168 8.107644 2.471410 -66.826172 -21.679686 37.314457 2.000000 -2.000000 0.000000 -87.978516 -27.744141 -26.703768 -45.127239 -2.077536 -1.625608 -27.816515 38.814251 -62.645134 -2.000000 2.000000 0.000000 51.738281 -3.769531 22.714846 106.933838 -0.622720 -3.132515 -30.467602 -71.491211 13.510818 -35.632553 30.013283 29.270174 17.183107 -5.087158 -1.739419 7.582152 8.490808 -6.003547 -19.683672 -12.302493 -0.878313 18.254253 4.893869 1.695081 -2.572003 -3.686669 -0.788340 
